<svg width="30" height="30" viewBox="0 0 30 30" fill="none" xmlns="http://www.w3.org/2000/svg">
<path d="M21.595 16.3038C22.9893 16.3038 24.2517 16.383 25.0283 16.5305C25.0404 16.5305 25.751 16.6767 25.9879 16.7709C26.3298 16.9185 26.6191 17.1848 26.8035 17.5181C26.9354 17.7845 27 18.0658 27 18.3595C26.9879 18.6655 26.79 19.2405 26.6972 19.4673C26.1198 20.9616 24.2248 23.8178 23.0687 24.9132C22.8843 25.099 22.6609 25.2998 22.6084 25.3531C22.3177 25.5798 21.9637 25.7 21.5829 25.7C21.2397 25.7 20.8978 25.5935 20.6219 25.379C20.4786 25.2766 20.2694 25.0727 20.1737 24.9772L20.1226 24.9255C18.9247 23.8055 17.124 21.0149 16.5452 19.5998C16.5329 19.5998 16.2446 18.8939 16.1863 18.468L16.1765 18.3595V18.3062C16.1765 17.6916 16.5183 17.1179 17.0715 16.8242C17.3743 16.6644 18.2545 16.5169 18.268 16.5032C19.0566 16.383 20.2666 16.3038 21.595 16.3038ZM9.41136 16.3741C9.9625 16.3741 10.4162 16.7946 10.4781 17.3369L10.4854 17.4641L10.7801 22.7296C10.7801 23.4973 10.1677 24.1188 9.41136 24.1188C8.70225 24.1188 8.11853 23.5725 8.04834 22.8717L8.04126 22.7296L8.33735 17.4641C8.33735 16.8617 8.81783 16.3741 9.41136 16.3741ZM9.41849 5C9.759 5 10.1009 5.10654 10.3781 5.31962C10.4975 5.40584 10.6627 5.56196 10.7698 5.66692L10.8774 5.77446C12.0739 6.89587 13.876 9.68503 14.4548 11.1001C14.4659 11.1001 14.7552 11.8071 14.8137 12.2332L14.8235 12.3417V12.395C14.8235 13.0083 14.4803 13.5819 13.9285 13.8756C13.6257 14.0368 12.7455 14.1829 12.732 14.1966C11.9434 14.3168 10.7334 14.396 9.40504 14.396C8.01071 14.396 6.74828 14.3168 5.97171 14.1693C5.95825 14.1693 5.24897 14.0231 5.0121 13.9289C4.67025 13.7827 4.38088 13.515 4.1965 13.1817C4.0646 12.9154 4 12.634 4 12.3417C4.01211 12.0344 4.20996 11.4607 4.30148 11.234C4.8802 9.7383 6.77385 6.88221 7.9313 5.78812C8.11569 5.601 8.3391 5.40021 8.39159 5.34694C8.68095 5.1202 9.03627 5 9.41849 5ZM21.5889 6.58125C22.298 6.58125 22.8806 7.12749 22.9506 7.82829L22.9577 7.9704L22.6629 13.236C22.6629 13.8384 22.1824 14.3261 21.5889 14.3261C21.0378 14.3261 20.5841 13.9056 20.5221 13.3632L20.5149 13.236L20.2188 7.9704C20.2188 7.20275 20.8325 6.58125 21.5889 6.58125Z" fill="#FF6915"/>
</svg>
