<svg width="115" height="87" viewBox="0 0 115 87" fill="none" xmlns="http://www.w3.org/2000/svg">
<path d="M22.6598 83.4518C21.8124 84.1723 21.7096 85.4433 22.43 86.2907C23.1505 87.138 24.4215 87.2409 25.2688 86.5205L22.6598 83.4518ZM33.2943 21.2207L35.0831 20.2954L35.052 20.2353L35.0169 20.1775L33.2943 21.2207ZM6.99885 2.03539L6.88864 0.0244916L6.50205 0.0456771L6.15087 0.208702L6.99885 2.03539ZM43.3147 50.8177L42.2567 52.5314L42.3252 52.5736L42.3967 52.6103L43.3147 50.8177ZM114.811 59.0286L92.9737 51.0337L96.9686 73.9427L114.811 59.0286ZM25.2688 86.5205C35.5573 77.773 51.6818 52.3845 35.0831 20.2954L31.5055 22.146C47.001 52.1022 31.9639 75.5412 22.6598 83.4518L25.2688 86.5205ZM35.0169 20.1775C32.9147 16.706 29.0535 11.5828 24.2184 7.37917C19.4336 3.21924 13.3586 -0.33008 6.88864 0.0244916L7.10905 4.04628C12.0037 3.77804 17.0614 6.49406 21.5757 10.4188C26.0398 14.2999 29.644 19.0808 31.5716 22.2639L35.0169 20.1775ZM6.15087 0.208702C3.72272 1.33589 1.47538 3.36703 0.500084 6.42072C-0.475492 9.47529 -0.0669769 13.2016 2.10601 17.5076C6.39873 26.0141 17.9298 37.512 42.2567 52.5314L44.3727 49.1041C20.1494 34.1487 9.46057 23.1411 5.70191 15.6929C3.84921 12.0216 3.77418 9.40828 4.33697 7.64616C4.90004 5.88316 6.21299 4.62053 7.84683 3.86207L6.15087 0.208702ZM42.3967 52.6103C52.339 57.702 74.3643 65.4003 97.0687 64.1526L96.8477 60.1308C75.045 61.329 53.7335 53.8908 44.2327 49.0252L42.3967 52.6103Z" fill="#3292DA"/>
</svg>
