<svg width="81" height="79" viewBox="0 0 81 79" fill="none" xmlns="http://www.w3.org/2000/svg">
<path opacity="0.3" fill-rule="evenodd" clip-rule="evenodd" d="M4.76464 2.73281C4.76464 1.22348 3.69804 -6.89605e-05 2.38232 -6.89605e-05C1.0666 -6.89605e-05 0 1.22348 0 2.73281C0 4.24215 1.0666 5.4657 2.38232 5.4657C3.69804 5.4657 4.76464 4.24215 4.76464 2.73281ZM17.4707 2.73281C17.4707 1.22348 16.4041 -6.89605e-05 15.0884 -6.89605e-05C13.7726 -6.89605e-05 12.706 1.22348 12.706 2.73281C12.706 4.24215 13.7726 5.4657 15.0884 5.4657C16.4041 5.4657 17.4707 4.24215 17.4707 2.73281ZM30.1767 2.73281C30.1767 1.22348 29.1101 -6.89605e-05 27.7944 -6.89605e-05C26.4787 -6.89605e-05 25.4121 1.22348 25.4121 2.73281C25.4121 4.24215 26.4787 5.4657 27.7944 5.4657C29.1101 5.4657 30.1767 4.24215 30.1767 2.73281ZM42.8813 2.73281C42.8813 1.22348 41.8147 -6.89605e-05 40.499 -6.89605e-05C39.1832 -6.89605e-05 38.1166 1.22348 38.1166 2.73281C38.1166 4.24215 39.1832 5.4657 40.499 5.4657C41.8147 5.4657 42.8813 4.24215 42.8813 2.73281ZM55.5873 2.73281C55.5873 1.22348 54.5207 -6.89605e-05 53.205 -6.89605e-05C51.8893 -6.89605e-05 50.8227 1.22348 50.8227 2.73281C50.8227 4.24215 51.8893 5.4657 53.205 5.4657C54.5207 5.4657 55.5873 4.24215 55.5873 2.73281ZM68.2934 2.73281C68.2934 1.22348 67.2268 -6.89605e-05 65.911 -6.89605e-05C64.5953 -6.89605e-05 63.5287 1.22348 63.5287 2.73281C63.5287 4.24215 64.5953 5.4657 65.911 5.4657C67.2268 5.4657 68.2934 4.24215 68.2934 2.73281ZM78.6171 72.8768C79.9328 72.8768 80.9994 74.1004 80.9994 75.6097C80.9994 77.119 79.9328 78.3426 78.6171 78.3426C77.3014 78.3426 76.2348 77.119 76.2348 75.6097C76.2348 74.1004 77.3014 72.8768 78.6171 72.8768ZM80.9994 61.0343C80.9994 59.525 79.9328 58.3015 78.6171 58.3015C77.3014 58.3015 76.2348 59.525 76.2348 61.0343C76.2348 62.5437 77.3014 63.7672 78.6171 63.7672C79.9328 63.7672 80.9994 62.5437 80.9994 61.0343ZM78.6171 43.726C79.9328 43.726 80.9994 44.9495 80.9994 46.4589C80.9994 47.9682 79.9328 49.1918 78.6171 49.1918C77.3014 49.1918 76.2348 47.9682 76.2348 46.4589C76.2348 44.9495 77.3014 43.726 78.6171 43.726ZM80.9994 31.8835C80.9994 30.3742 79.9328 29.1506 78.6171 29.1506C77.3014 29.1506 76.2348 30.3742 76.2348 31.8835C76.2348 33.3928 77.3014 34.6164 78.6171 34.6164C79.9328 34.6164 80.9994 33.3928 80.9994 31.8835ZM78.6171 14.5753C79.9328 14.5753 80.9994 15.7988 80.9994 17.3082C80.9994 18.8175 79.9328 20.041 78.6171 20.041C77.3014 20.041 76.2348 18.8175 76.2348 17.3082C76.2348 15.7988 77.3014 14.5753 78.6171 14.5753ZM78.6171 -6.89605e-05C79.9328 -6.89605e-05 80.9994 1.22348 80.9994 2.73281C80.9994 4.24215 79.9328 5.4657 78.6171 5.4657C77.3014 5.4657 76.2348 4.24215 76.2348 2.73281C76.2348 1.22348 77.3014 -6.89605e-05 78.6171 -6.89605e-05ZM65.911 14.5753C67.2268 14.5753 68.2934 15.7988 68.2934 17.3082C68.2934 18.8175 67.2268 20.041 65.911 20.041C64.5953 20.041 63.5287 18.8175 63.5287 17.3082C63.5287 15.7988 64.5953 14.5753 65.911 14.5753ZM68.2934 31.8835C68.2934 30.3742 67.2268 29.1506 65.911 29.1506C64.5953 29.1506 63.5287 30.3742 63.5287 31.8835C63.5287 33.3928 64.5953 34.6164 65.911 34.6164C67.2268 34.6164 68.2934 33.3928 68.2934 31.8835ZM65.911 43.726C67.2268 43.726 68.2934 44.9495 68.2934 46.4589C68.2934 47.9682 67.2268 49.1918 65.911 49.1918C64.5953 49.1918 63.5287 47.9682 63.5287 46.4589C63.5287 44.9495 64.5953 43.726 65.911 43.726ZM68.2934 61.0343C68.2934 59.525 67.2268 58.3015 65.911 58.3015C64.5953 58.3015 63.5287 59.525 63.5287 61.0343C63.5287 62.5437 64.5953 63.7672 65.911 63.7672C67.2268 63.7672 68.2934 62.5437 68.2934 61.0343ZM65.911 72.8768C67.2268 72.8768 68.2934 74.1004 68.2934 75.6097C68.2934 77.119 67.2268 78.3426 65.911 78.3426C64.5953 78.3426 63.5287 77.119 63.5287 75.6097C63.5287 74.1004 64.5953 72.8768 65.911 72.8768ZM53.205 14.5753C54.5207 14.5753 55.5873 15.7988 55.5873 17.3082C55.5873 18.8175 54.5207 20.041 53.205 20.041C51.8893 20.041 50.8227 18.8175 50.8227 17.3082C50.8227 15.7988 51.8893 14.5753 53.205 14.5753ZM55.5873 31.8835C55.5873 30.3742 54.5207 29.1506 53.205 29.1506C51.8893 29.1506 50.8227 30.3742 50.8227 31.8835C50.8227 33.3928 51.8893 34.6164 53.205 34.6164C54.5207 34.6164 55.5873 33.3928 55.5873 31.8835ZM53.205 43.726C54.5207 43.726 55.5873 44.9495 55.5873 46.4589C55.5873 47.9682 54.5207 49.1918 53.205 49.1918C51.8893 49.1918 50.8227 47.9682 50.8227 46.4589C50.8227 44.9495 51.8893 43.726 53.205 43.726ZM55.5873 61.0343C55.5873 59.525 54.5207 58.3015 53.205 58.3015C51.8893 58.3015 50.8227 59.525 50.8227 61.0343C50.8227 62.5437 51.8893 63.7672 53.205 63.7672C54.5207 63.7672 55.5873 62.5437 55.5873 61.0343ZM53.205 72.8768C54.5207 72.8768 55.5873 74.1004 55.5873 75.6097C55.5873 77.119 54.5207 78.3426 53.205 78.3426C51.8893 78.3426 50.8227 77.119 50.8227 75.6097C50.8227 74.1004 51.8893 72.8768 53.205 72.8768ZM40.499 14.5753C41.8147 14.5753 42.8813 15.7988 42.8813 17.3082C42.8813 18.8175 41.8147 20.041 40.499 20.041C39.1832 20.041 38.1166 18.8175 38.1166 17.3082C38.1166 15.7988 39.1832 14.5753 40.499 14.5753ZM42.8813 31.8835C42.8813 30.3742 41.8147 29.1506 40.499 29.1506C39.1832 29.1506 38.1166 30.3742 38.1166 31.8835C38.1166 33.3928 39.1832 34.6164 40.499 34.6164C41.8147 34.6164 42.8813 33.3928 42.8813 31.8835ZM40.499 43.726C41.8147 43.726 42.8813 44.9495 42.8813 46.4589C42.8813 47.9682 41.8147 49.1918 40.499 49.1918C39.1832 49.1918 38.1166 47.9682 38.1166 46.4589C38.1166 44.9495 39.1832 43.726 40.499 43.726ZM42.8813 61.0343C42.8813 59.525 41.8147 58.3015 40.499 58.3015C39.1832 58.3015 38.1166 59.525 38.1166 61.0343C38.1166 62.5437 39.1832 63.7672 40.499 63.7672C41.8147 63.7672 42.8813 62.5437 42.8813 61.0343ZM40.499 72.8768C41.8147 72.8768 42.8813 74.1004 42.8813 75.6097C42.8813 77.119 41.8147 78.3426 40.499 78.3426C39.1832 78.3426 38.1166 77.119 38.1166 75.6097C38.1166 74.1004 39.1832 72.8768 40.499 72.8768ZM27.7944 14.5753C29.1101 14.5753 30.1767 15.7988 30.1767 17.3082C30.1767 18.8175 29.1101 20.041 27.7944 20.041C26.4787 20.041 25.4121 18.8175 25.4121 17.3082C25.4121 15.7988 26.4787 14.5753 27.7944 14.5753ZM30.1767 31.8835C30.1767 30.3742 29.1101 29.1506 27.7944 29.1506C26.4787 29.1506 25.4121 30.3742 25.4121 31.8835C25.4121 33.3928 26.4787 34.6164 27.7944 34.6164C29.1101 34.6164 30.1767 33.3928 30.1767 31.8835ZM27.7944 43.726C29.1101 43.726 30.1767 44.9495 30.1767 46.4589C30.1767 47.9682 29.1101 49.1918 27.7944 49.1918C26.4787 49.1918 25.4121 47.9682 25.4121 46.4589C25.4121 44.9495 26.4787 43.726 27.7944 43.726ZM30.1767 61.0343C30.1767 59.525 29.1101 58.3015 27.7944 58.3015C26.4787 58.3015 25.4121 59.525 25.4121 61.0343C25.4121 62.5437 26.4787 63.7672 27.7944 63.7672C29.1101 63.7672 30.1767 62.5437 30.1767 61.0343ZM27.7944 72.8768C29.1101 72.8768 30.1767 74.1004 30.1767 75.6097C30.1767 77.119 29.1101 78.3426 27.7944 78.3426C26.4787 78.3426 25.4121 77.119 25.4121 75.6097C25.4121 74.1004 26.4787 72.8768 27.7944 72.8768ZM15.0884 14.5753C16.4041 14.5753 17.4707 15.7988 17.4707 17.3082C17.4707 18.8175 16.4041 20.041 15.0884 20.041C13.7726 20.041 12.706 18.8175 12.706 17.3082C12.706 15.7988 13.7726 14.5753 15.0884 14.5753ZM17.4707 31.8835C17.4707 30.3742 16.4041 29.1506 15.0884 29.1506C13.7726 29.1506 12.706 30.3742 12.706 31.8835C12.706 33.3928 13.7726 34.6164 15.0884 34.6164C16.4041 34.6164 17.4707 33.3928 17.4707 31.8835ZM15.0884 43.726C16.4041 43.726 17.4707 44.9495 17.4707 46.4589C17.4707 47.9682 16.4041 49.1918 15.0884 49.1918C13.7726 49.1918 12.706 47.9682 12.706 46.4589C12.706 44.9495 13.7726 43.726 15.0884 43.726ZM17.4707 61.0343C17.4707 59.525 16.4041 58.3015 15.0884 58.3015C13.7726 58.3015 12.706 59.525 12.706 61.0343C12.706 62.5437 13.7726 63.7672 15.0884 63.7672C16.4041 63.7672 17.4707 62.5437 17.4707 61.0343ZM15.0884 72.8768C16.4041 72.8768 17.4707 74.1004 17.4707 75.6097C17.4707 77.119 16.4041 78.3426 15.0884 78.3426C13.7726 78.3426 12.706 77.119 12.706 75.6097C12.706 74.1004 13.7726 72.8768 15.0884 72.8768ZM2.38232 14.5753C3.69804 14.5753 4.76464 15.7988 4.76464 17.3082C4.76464 18.8175 3.69804 20.041 2.38232 20.041C1.0666 20.041 0 18.8175 0 17.3082C0 15.7988 1.0666 14.5753 2.38232 14.5753ZM4.76464 31.8835C4.76464 30.3742 3.69804 29.1506 2.38232 29.1506C1.0666 29.1506 0 30.3742 0 31.8835C0 33.3928 1.0666 34.6164 2.38232 34.6164C3.69804 34.6164 4.76464 33.3928 4.76464 31.8835ZM2.38232 43.726C3.69804 43.726 4.76464 44.9495 4.76464 46.4589C4.76464 47.9682 3.69804 49.1918 2.38232 49.1918C1.0666 49.1918 0 47.9682 0 46.4589C0 44.9495 1.0666 43.726 2.38232 43.726ZM4.76464 61.0343C4.76464 59.525 3.69804 58.3015 2.38232 58.3015C1.0666 58.3015 0 59.525 0 61.0343C0 62.5437 1.0666 63.7672 2.38232 63.7672C3.69804 63.7672 4.76464 62.5437 4.76464 61.0343ZM2.38232 72.8768C3.69804 72.8768 4.76464 74.1004 4.76464 75.6097C4.76464 77.119 3.69804 78.3426 2.38232 78.3426C1.0666 78.3426 0 77.119 0 75.6097C0 74.1004 1.0666 72.8768 2.38232 72.8768Z" fill="#57586E"/>
</svg>
