<svg width="32" height="32" viewBox="0 0 32 32" fill="none" xmlns="http://www.w3.org/2000/svg">
<path d="M27.7075 16.7071L18.7075 25.7071C18.5199 25.8947 18.2654 26.0001 18 26.0001C17.7346 26.0001 17.4801 25.8947 17.2925 25.7071C17.1049 25.5194 16.9994 25.2649 16.9994 24.9996C16.9994 24.7342 17.1049 24.4797 17.2925 24.2921L24.5863 16.9996H5C4.73478 16.9996 4.48043 16.8942 4.29289 16.7067C4.10536 16.5192 4 16.2648 4 15.9996C4 15.7344 4.10536 15.48 4.29289 15.2925C4.48043 15.1049 4.73478 14.9996 5 14.9996H24.5863L17.2925 7.70708C17.1049 7.51944 16.9994 7.26494 16.9994 6.99958C16.9994 6.73422 17.1049 6.47972 17.2925 6.29208C17.4801 6.10444 17.7346 5.99902 18 5.99902C18.2654 5.99902 18.5199 6.10444 18.7075 6.29208L27.7075 15.2921C27.8005 15.385 27.8742 15.4952 27.9246 15.6166C27.9749 15.738 28.0008 15.8682 28.0008 15.9996C28.0008 16.131 27.9749 16.2611 27.9246 16.3825C27.8742 16.5039 27.8005 16.6142 27.7075 16.7071Z" fill="#343330"/>
</svg>
