<svg width="73" height="90" viewBox="0 0 73 90" fill="none" xmlns="http://www.w3.org/2000/svg">
<path d="M51.367 41.0554L30.0104 67.8957C29.4233 68.6336 28.2701 68.3973 27.9522 67.4859L16.5812 34.5835L5.21028 1.68121C4.89238 0.769814 5.62632 -0.152582 6.53134 0.0209318L39.1855 6.17513L71.8397 12.3294C72.7447 12.5029 73.164 13.6616 72.5768 14.3994L51.367 41.0554Z" fill="#FF6915"/>
<path d="M46.9334 61.9829L25.5768 88.8232C24.9897 89.5611 23.8366 89.3249 23.5187 88.4135L12.1477 55.5111L0.776684 22.6088C0.458784 21.6974 1.19268 20.775 2.0977 20.9485L34.7519 27.1028L67.4061 33.257C68.3111 33.4305 68.7304 34.5891 68.1432 35.327L46.9334 61.9829Z" stroke="black" stroke-width="1.4268" stroke-miterlimit="10"/>
</svg>
