<svg width="29" height="28" viewBox="0 0 29 28" fill="none" xmlns="http://www.w3.org/2000/svg">
<path d="M0.0501535 6.47285C0.0602089 6.52928 0.068349 6.58571 0.0717008 6.6426C0.114316 7.37289 0.666405 13.1997 7.6075 20.2943C7.6075 20.2943 13.6034 26.4046 19.9139 27.6893C19.9412 27.695 19.968 27.7011 19.9953 27.7086C20.3774 27.8125 23.6257 28.6336 25.3002 26.9544L27.6857 24.6116C27.7073 24.5904 27.7298 24.5697 27.7528 24.55C27.9907 24.3454 29.6475 22.8148 27.9903 21.1873C26.3129 19.54 24.1984 17.5316 23.959 17.304C23.9475 17.2932 23.9365 17.2824 23.9255 17.2711C23.7957 17.1385 22.5632 15.9459 21.1196 17.0355C21.0779 17.067 21.0386 17.1023 21.0013 17.1389L18.6656 19.4389C18.1422 19.935 17.311 19.9284 16.7953 19.4243L8.81558 11.6178C8.27977 11.0935 8.29366 10.2372 8.84623 9.72976L10.7137 8.01619C10.7137 8.01619 12.7597 6.1559 10.5623 4.14655L7.30057 0.943238C7.28046 0.923488 7.26131 0.903267 7.24215 0.882106C7.03147 0.648865 5.4681 -0.948086 3.6337 0.829439C3.57768 0.883517 3.51687 0.932422 3.45223 0.975685C2.82975 1.39514 -0.441603 3.73884 0.0501535 6.47285Z" fill="white"/>
</svg>
