<svg width="73" height="85" viewBox="0 0 73 85" fill="none" xmlns="http://www.w3.org/2000/svg">
<path d="M5.48458 1.41846L5.48406 1.41704C5.30114 0.920403 5.72055 0.42121 6.24129 0.515764L6.24277 0.51603L38.8818 6.3417L71.5195 12.1671C71.5198 12.1672 71.5201 12.1673 71.5204 12.1673C72.0637 12.2667 72.2848 12.9201 71.9603 13.3063L50.7603 38.5392L29.4135 63.9468C29.0889 64.3331 28.4069 64.2278 28.2156 63.7093C28.2156 63.7091 28.2155 63.709 28.2155 63.7089L16.8503 32.5644L5.48458 1.41846Z" fill="#FADAE0" stroke="#3D4C5E"/>
<path d="M46.7148 58.6736L25.368 84.0811C24.7812 84.7796 23.6286 84.556 23.3109 83.6932L11.9451 52.5473L0.579366 21.4013C0.261613 20.5386 0.995169 19.6655 1.89977 19.8297L34.5389 25.6554L67.178 31.4811C68.0826 31.6454 68.5016 32.7421 67.9148 33.4406L46.7148 58.6736Z" stroke="#3D4C5E" stroke-miterlimit="10"/>
</svg>
