<svg width="30" height="30" viewBox="0 0 30 30" fill="none" xmlns="http://www.w3.org/2000/svg">
<path d="M26.5111 19.8626C25.7158 21.7432 24.472 23.4004 22.8884 24.6892C21.3048 25.9781 19.4295 26.8594 17.4266 27.2561C15.4237 27.6528 13.3541 27.5528 11.3987 26.9648C9.44339 26.3769 7.66183 25.3189 6.20983 23.8834C4.75782 22.4479 3.67957 20.6785 3.06934 18.73C2.45912 16.7815 2.3355 14.7132 2.7093 12.7059C3.08309 10.6986 3.94292 8.81338 5.21361 7.21513C6.4843 5.61689 8.12715 4.35424 9.99855 3.5376" stroke="#FF6915" stroke-width="2" stroke-linecap="round" stroke-linejoin="round"/>
<path d="M27.5 15C27.5 13.3585 27.1767 11.733 26.5485 10.2165C25.9203 8.69989 24.9996 7.3219 23.8388 6.16117C22.6781 5.00043 21.3001 4.07969 19.7835 3.45151C18.267 2.82332 16.6415 2.5 15 2.5V15H27.5Z" stroke="#FF6915" stroke-width="2" stroke-linecap="round" stroke-linejoin="round"/>
</svg>
