<svg width="20" height="20" viewBox="0 0 20 20" fill="none" xmlns="http://www.w3.org/2000/svg">
<path d="M14.4137 10.6637L8.16374 16.9137C7.98761 17.0899 7.74874 17.1888 7.49967 17.1888C7.2506 17.1888 7.01173 17.0899 6.83561 16.9137C6.65949 16.7376 6.56055 16.4987 6.56055 16.2497C6.56055 16.0006 6.65949 15.7617 6.83561 15.5856L12.4223 10.0005L6.83717 4.41374C6.74997 4.32653 6.68079 4.223 6.6336 4.10906C6.5864 3.99512 6.56211 3.873 6.56211 3.74967C6.56211 3.62635 6.5864 3.50422 6.6336 3.39028C6.68079 3.27634 6.74997 3.17282 6.83717 3.08561C6.92438 2.9984 7.02791 2.92923 7.14185 2.88203C7.25579 2.83484 7.37791 2.81055 7.50124 2.81055C7.62456 2.81055 7.74668 2.83484 7.86062 2.88203C7.97456 2.92923 8.07809 2.9984 8.1653 3.08561L14.4153 9.33561C14.5026 9.42281 14.5718 9.52638 14.619 9.6404C14.6662 9.75441 14.6904 9.87661 14.6903 10C14.6901 10.1234 14.6656 10.2455 14.6182 10.3594C14.5707 10.4733 14.5012 10.5767 14.4137 10.6637Z" fill="#3292DA"/>
</svg>
