<svg width="24" height="24" viewBox="0 0 24 24" fill="none" xmlns="http://www.w3.org/2000/svg">
<path fill-rule="evenodd" clip-rule="evenodd" d="M2.83268 11.0003C2.83268 5.93772 6.93674 1.83366 11.9993 1.83366C17.062 1.83366 21.166 5.93772 21.166 11.0003C21.166 16.0629 17.062 20.167 11.9993 20.167C6.93674 20.167 2.83268 16.0629 2.83268 11.0003ZM11.9993 0.166992C6.01626 0.166992 1.16602 5.01724 1.16602 11.0003C1.16602 16.9834 6.01626 21.8337 11.9993 21.8337C17.9824 21.8337 22.8327 16.9834 22.8327 11.0003C22.8327 5.01724 17.9824 0.166992 11.9993 0.166992ZM11.9295 14.6947L17.719 8.69469L16.2797 7.30596L11.1142 12.6594L7.61304 9.93805L6.38566 11.5171L10.5962 14.7899L11.3056 15.3413L11.9295 14.6947Z" fill="#2B9B5B"/>
</svg>
