<svg width="48" height="48" viewBox="0 0 48 48" fill="none" xmlns="http://www.w3.org/2000/svg">
<path d="M24 4.5C20.1433 4.5 16.3731 5.64366 13.1664 7.78634C9.95963 9.92903 7.46027 12.9745 5.98436 16.5377C4.50845 20.1008 4.12228 24.0216 4.8747 27.8043C5.62711 31.5869 7.4843 35.0615 10.2114 37.7886C12.9386 40.5157 16.4131 42.3729 20.1957 43.1253C23.9784 43.8777 27.8992 43.4916 31.4623 42.0156C35.0255 40.5397 38.071 38.0404 40.2137 34.8336C42.3564 31.6269 43.5 27.8567 43.5 24C43.4945 18.83 41.4383 13.8732 37.7826 10.2174C34.1268 6.56167 29.1701 4.50546 24 4.5ZM28.0613 30.4387C28.2006 30.5781 28.3112 30.7436 28.3866 30.9257C28.462 31.1077 28.5008 31.3029 28.5008 31.5C28.5008 31.6971 28.462 31.8923 28.3866 32.0743C28.3112 32.2564 28.2006 32.4219 28.0613 32.5613C27.9219 32.7006 27.7564 32.8112 27.5744 32.8866C27.3923 32.962 27.1971 33.0008 27 33.0008C26.8029 33.0008 26.6078 32.962 26.4257 32.8866C26.2436 32.8112 26.0781 32.7006 25.9388 32.5613L18.4388 25.0613C18.2993 24.9219 18.1887 24.7565 18.1132 24.5744C18.0377 24.3923 17.9988 24.1971 17.9988 24C17.9988 23.8029 18.0377 23.6077 18.1132 23.4256C18.1887 23.2435 18.2993 23.0781 18.4388 22.9387L25.9388 15.4387C26.0781 15.2994 26.2436 15.1888 26.4257 15.1134C26.6078 15.038 26.8029 14.9992 27 14.9992C27.1971 14.9992 27.3923 15.038 27.5744 15.1134C27.7564 15.1888 27.9219 15.2994 28.0613 15.4387C28.2006 15.5781 28.3112 15.7436 28.3866 15.9257C28.462 16.1077 28.5008 16.3029 28.5008 16.5C28.5008 16.6971 28.462 16.8923 28.3866 17.0743C28.3112 17.2564 28.2006 17.4219 28.0613 17.5613L21.6206 24L28.0613 30.4387Z" fill="#BFDDF4"/>
</svg>
